{
    "asset" : {
        "generator" : "Khronos glTF Blender I/O v1.0.5",
        "version" : "2.0"
    },
    "scene" : 0,
    "scenes" : [
        {
            "name" : "Scene",
            "nodes" : [
                0,
                1,
                2
            ]
        }
    ],
    "nodes" : [
        {
            "name" : "Light",
            "rotation" : [
                0.16907575726509094,
                0.7558803558349609,
                -0.27217137813568115,
                0.570947527885437
            ],
            "translation" : [
                4.076245307922363,
                5.903861999511719,
                -1.0054539442062378
            ]
        },
        {
            "name" : "Camera",
            "rotation" : [
                0.483536034822464,
                0.33687159419059753,
                -0.20870360732078552,
                0.7804827094078064
            ],
            "translation" : [
                7.358891487121582,
                4.958309173583984,
                6.925790786743164
            ]
        },
        {
            "mesh" : 0,
            "name" : "Icosphere"
        }
    ],
    "materials" : [
        {
            "doubleSided" : true,
            "name" : "ocean",
            "pbrMetallicRoughness" : {
                "baseColorFactor" : [
                    0.18429291248321533,
                    0.232172429561615,
                    0.8000000715255737,
                    1
                ],
                "metallicFactor" : 0,
                "roughnessFactor" : 0.5
            }
        },
        {
            "doubleSided" : true,
            "name" : "land",
            "pbrMetallicRoughness" : {
                "baseColorFactor" : [
                    0.8000000715255737,
                    0.5555316805839539,
                    0.3972758948802948,
                    1
                ],
                "metallicFactor" : 0,
                "roughnessFactor" : 0.5
            }
        },
        {
            "doubleSided" : true,
            "name" : "crater",
            "pbrMetallicRoughness" : {
                "baseColorFactor" : [
                    0.800000011920929,
                    0.800000011920929,
                    0.800000011920929,
                    1
                ],
                "metallicFactor" : 0,
                "roughnessFactor" : 0.5
            }
        }
    ],
    "meshes" : [
        {
            "name" : "Icosphere",
            "primitives" : [
                {
                    "attributes" : {
                        "POSITION" : 0,
                        "NORMAL" : 1,
                        "TEXCOORD_0" : 2
                    },
                    "indices" : 3,
                    "material" : 0
                },
                {
                    "attributes" : {
                        "POSITION" : 4,
                        "NORMAL" : 5,
                        "TEXCOORD_0" : 6
                    },
                    "indices" : 7,
                    "material" : 1
                },
                {
                    "attributes" : {
                        "POSITION" : 8,
                        "NORMAL" : 9,
                        "TEXCOORD_0" : 10
                    },
                    "indices" : 11,
                    "material" : 2
                }
            ]
        }
    ],
    "accessors" : [
        {
            "bufferView" : 0,
            "componentType" : 5126,
            "count" : 1511,
            "max" : [
                4.999999523162842,
                4.966084957122803,
                4.941508769989014
            ],
            "min" : [
                -4.999999523162842,
                -2.0461525917053223,
                -5.057076930999756
            ],
            "type" : "VEC3"
        },
        {
            "bufferView" : 1,
            "componentType" : 5126,
            "count" : 1511,
            "type" : "VEC3"
        },
        {
            "bufferView" : 2,
            "componentType" : 5126,
            "count" : 1511,
            "type" : "VEC2"
        },
        {
            "bufferView" : 3,
            "componentType" : 5123,
            "count" : 1749,
            "type" : "SCALAR"
        },
        {
            "bufferView" : 4,
            "componentType" : 5126,
            "count" : 5431,
            "max" : [
                5.015356540679932,
                5.513001441955566,
                5.284862518310547
            ],
            "min" : [
                -4.999999523162842,
                -5.527022838592529,
                -5.236636638641357
            ],
            "type" : "VEC3"
        },
        {
            "bufferView" : 5,
            "componentType" : 5126,
            "count" : 5431,
            "type" : "VEC3"
        },
        {
            "bufferView" : 6,
            "componentType" : 5126,
            "count" : 5431,
            "type" : "VEC2"
        },
        {
            "bufferView" : 7,
            "componentType" : 5123,
            "count" : 7131,
            "type" : "SCALAR"
        },
        {
            "bufferView" : 8,
            "componentType" : 5126,
            "count" : 756,
            "max" : [
                3.827986240386963,
                5.177056312561035,
                5.029652118682861
            ],
            "min" : [
                -4.009772777557373,
                -4.539930820465088,
                -4.807977199554443
            ],
            "type" : "VEC3"
        },
        {
            "bufferView" : 9,
            "componentType" : 5126,
            "count" : 756,
            "type" : "VEC3"
        },
        {
            "bufferView" : 10,
            "componentType" : 5126,
            "count" : 756,
            "type" : "VEC2"
        },
        {
            "bufferView" : 11,
            "componentType" : 5123,
            "count" : 756,
            "type" : "SCALAR"
        }
    ],
    "bufferViews" : [
        {
            "buffer" : 0,
            "byteLength" : 18132,
            "byteOffset" : 0
        },
        {
            "buffer" : 0,
            "byteLength" : 18132,
            "byteOffset" : 18132
        },
        {
            "buffer" : 0,
            "byteLength" : 12088,
            "byteOffset" : 36264
        },
        {
            "buffer" : 0,
            "byteLength" : 3498,
            "byteOffset" : 48352
        },
        {
            "buffer" : 0,
            "byteLength" : 65172,
            "byteOffset" : 51852
        },
        {
            "buffer" : 0,
            "byteLength" : 65172,
            "byteOffset" : 117024
        },
        {
            "buffer" : 0,
            "byteLength" : 43448,
            "byteOffset" : 182196
        },
        {
            "buffer" : 0,
            "byteLength" : 14262,
            "byteOffset" : 225644
        },
        {
            "buffer" : 0,
            "byteLength" : 9072,
            "byteOffset" : 239908
        },
        {
            "buffer" : 0,
            "byteLength" : 9072,
            "byteOffset" : 248980
        },
        {
            "buffer" : 0,
            "byteLength" : 6048,
            "byteOffset" : 258052
        },
        {
            "buffer" : 0,
            "byteLength" : 1512,
            "byteOffset" : 264100
        }
    ],
    "buffers" : [
        {
            "byteLength" : 265612,
            "uri" : "SurfacePlanet.bin"
        }
    ]
}
